<svg xmlns="http://www.w3.org/2000/svg" viewBox="0 0 64 64" role="img" aria-labelledby="title desc">
  <title id="title">Learnova</title><desc id="desc">An open book with a rising star</desc>
  <defs><linearGradient id="g" x1="10" y1="50" x2="51" y2="10" gradientUnits="userSpaceOnUse"><stop stop-color="#2c8063"/><stop offset="1" stop-color="#6ee0ac"/></linearGradient></defs>
  <rect width="64" height="64" rx="17" fill="#102e28"/>
  <path d="M10 24.5c8-2.3 14.8-.7 22 5.1v22.2C25.2 46.4 18.2 44.6 10 47V24.5Z" fill="none" stroke="#fff" stroke-width="3" stroke-linejoin="round"/>
  <path d="M54 24.5c-8-2.3-14.8-.7-22 5.1v22.2c6.8-5.4 13.8-7.2 22-4.8V24.5Z" fill="none" stroke="#fff" stroke-width="3" stroke-linejoin="round"/>
  <path d="M32 29.6v22.2" stroke="#fff" stroke-width="3" stroke-linecap="round"/>
  <path d="M42.5 8.5 45 14l5.8 1.2-4.4 4 1 5.8-4.9-3-5.1 3 1.2-5.8-4.5-4 5.9-1.2 2.5-5.5Z" fill="#ffd45c"/>
  <path d="M35.5 26.5c1.8-4.1 4.6-7.1 8.3-9" fill="none" stroke="url(#g)" stroke-width="2.5" stroke-linecap="round"/>
</svg>
